<svg width="32" height="33" viewBox="0 0 32 33" fill="none" xmlns="http://www.w3.org/2000/svg">
<path d="M23.8933 9.0171C23.758 8.6913 23.499 8.4324 23.1733 8.2971C23.013 8.22877 22.8408 8.19254 22.6666 8.19043H9.33325C8.97963 8.19043 8.64049 8.33091 8.39044 8.58095C8.14039 8.831 7.99992 9.17014 7.99992 9.52376C7.99992 9.87738 8.14039 10.2165 8.39044 10.4666C8.64049 10.7166 8.97963 10.8571 9.33325 10.8571H19.4533L8.38659 21.9104C8.26161 22.0344 8.16242 22.1818 8.09473 22.3443C8.02704 22.5068 7.99219 22.6811 7.99219 22.8571C7.99219 23.0331 8.02704 23.2074 8.09473 23.3699C8.16242 23.5323 8.26161 23.6798 8.38659 23.8038C8.51054 23.9287 8.658 24.0279 8.82048 24.0956C8.98296 24.1633 9.15724 24.1982 9.33325 24.1982C9.50927 24.1982 9.68354 24.1633 9.84602 24.0956C10.0085 24.0279 10.156 23.9287 10.2799 23.8038L21.3333 12.7371V22.8571C21.3333 23.2107 21.4737 23.5499 21.7238 23.7999C21.9738 24.05 22.313 24.1904 22.6666 24.1904C23.0202 24.1904 23.3593 24.05 23.6094 23.7999C23.8594 23.5499 23.9999 23.2107 23.9999 22.8571V9.52376C23.9978 9.34953 23.9616 9.17739 23.8933 9.0171Z" fill="white" fill-opacity="0.8"/>
</svg>
