<svg width="40" height="41" viewBox="0 0 40 41" fill="none" xmlns="http://www.w3.org/2000/svg">
<rect x="0.5" y="0.880859" width="39" height="39" rx="19.5" stroke="white" stroke-opacity="0.15"/>
<path d="M25.9199 15.0009C25.8185 14.7565 25.6243 14.5623 25.3799 14.4609C25.2597 14.4096 25.1306 14.3824 24.9999 14.3809H14.9999C14.7347 14.3809 14.4804 14.4862 14.2928 14.6738C14.1053 14.8613 13.9999 15.1156 13.9999 15.3809C13.9999 15.6461 14.1053 15.9004 14.2928 16.088C14.4804 16.2755 14.7347 16.3809 14.9999 16.3809H22.5899L14.2899 24.6709C14.1962 24.7638 14.1218 24.8744 14.071 24.9963C14.0203 25.1181 13.9941 25.2488 13.9941 25.3809C13.9941 25.5129 14.0203 25.6436 14.071 25.7654C14.1218 25.8873 14.1962 25.9979 14.2899 26.0909C14.3829 26.1846 14.4935 26.259 14.6154 26.3098C14.7372 26.3605 14.8679 26.3867 14.9999 26.3867C15.132 26.3867 15.2627 26.3605 15.3845 26.3098C15.5064 26.259 15.617 26.1846 15.7099 26.0909L23.9999 17.7909V25.3809C23.9999 25.6461 24.1053 25.9004 24.2928 26.088C24.4804 26.2755 24.7347 26.3809 24.9999 26.3809C25.2652 26.3809 25.5195 26.2755 25.707 26.088C25.8946 25.9004 25.9999 25.6461 25.9999 25.3809V15.3809C25.9984 15.2502 25.9712 15.1211 25.9199 15.0009Z" fill="white" fill-opacity="0.8"/>
</svg>
