<svg width="8" height="14" viewBox="0 0 8 14" fill="none" xmlns="http://www.w3.org/2000/svg">
<path d="M0.491268 6.29004L6.15127 0.640037C6.24423 0.546308 6.35483 0.471914 6.47669 0.421145C6.59855 0.370377 6.72926 0.344238 6.86127 0.344238C6.99328 0.344238 7.12399 0.370377 7.24584 0.421145C7.3677 0.471914 7.47831 0.546308 7.57127 0.640037C7.75752 0.827399 7.86206 1.08085 7.86206 1.34504C7.86206 1.60922 7.75752 1.86267 7.57127 2.05004L2.62127 7.05004L7.57127 12C7.75752 12.1874 7.86206 12.4409 7.86206 12.705C7.86206 12.9692 7.75752 13.2227 7.57127 13.41C7.47865 13.5045 7.36821 13.5797 7.24633 13.6312C7.12446 13.6827 6.99358 13.7095 6.86127 13.71C6.72896 13.7095 6.59808 13.6827 6.4762 13.6312C6.35433 13.5797 6.24388 13.5045 6.15127 13.41L0.491268 7.76004C0.389763 7.66639 0.308755 7.55274 0.253347 7.42624C0.19794 7.29974 0.169335 7.16314 0.169335 7.02504C0.169335 6.88693 0.19794 6.75033 0.253347 6.62383C0.308755 6.49733 0.389763 6.38368 0.491268 6.29004V6.29004Z" fill="#A9A9A9"/>
</svg>
